<svg xmlns="http://www.w3.org/2000/svg" viewBox="0 0 483.63 516.44"><defs><style>.cls-1{fill:#fbffff;}</style></defs><title>アセット 1</title><g id="レイヤー_2" data-name="レイヤー 2"><g id="レイヤー_1-2" data-name="レイヤー 1"><path class="cls-1" d="M456.46,163.51c-2.59-5-3.45-9.24-2-15.1,6.45-26,.14-49.36-16.86-70-12-14.54-26.05-26.7-41.22-37.7-2.55-1.86-3.2-3.15-1.29-6,3.69-5.51,6.76-11.44,10.38-17,1.43-2.2.94-3.07-1.06-4.2a125.06,125.06,0,0,1-11.14-6.66c-2.44-1.7-3.47-1.24-4.87,1.23-3.76,6.67-7.83,13.1-12.4,20.67-.22-2.35-1.1-2.9-2.15-3.39-21-10.39-42.29-19.82-65.52-24-28.76-5.18-50.42,4.41-65.55,29.41-1.16,1.92-2.44,2-4.23,2.08a249.86,249.86,0,0,0-34.12,2.91c-59.14,9.62-108.67,36.92-147,82.76-48.88,58.4-66.59,125.92-53,200.84,11.06,61,42.08,110.64,91.42,147.92,54.68,41.28,116.56,56.37,184.29,46C330.94,505.5,374.79,483,411.31,447c42.32-41.77,66.15-92.58,71.32-151.94A236,236,0,0,0,456.46,163.51Zm7,128c-7.59,99.24-79,181.15-177,200.73-73.54,14.69-139-3.77-194.82-53.9C53,403.63,30.39,359.69,22,308.48c-1.88-11.14-2.37-22.43-2.67-32.9C20.17,163.51,98.77,76.44,198,56.58a205.32,205.32,0,0,1,38.69-4.23c1.47,0,3.06-.55,3.65,1.83,4,16.25,13.75,29.23,24.85,41.09,33.44,35.72,73.46,60.8,121,73.19C400,172,414,174,428.3,171.58c.71-.12,1.42-.23,2.12-.4,7.34-1.84,7.38-1.87,10.68,4.85A219,219,0,0,1,463.5,291.51Z"/><path class="cls-1" d="M348,234.15c-24.65-26.26-68-19.15-83.53,13.38-1.26,2.65-2.1,2.71-4.5,1.53-4.25-2.09-8.7-3.8-13.14-5.48a110.92,110.92,0,0,0-30-6.36c4.45-3.95,2.35-5.95-1.17-7.95a57.7,57.7,0,0,1-8.23-5.61c-2.48-2-4.18-2-5.48,1.09-4.37,10.49-12.21,15.26-23.56,16.67-10.48,1.31-10.36,2.29-8.54,12.85.47,2.7,0,6.35,1.59,7.87,2.11,2,5.28-1,8.11-1,.14,0,.27.11.58.24a6.57,6.57,0,0,1-.44,1.43c-8.23,15.59-14.86,31.84-21.23,48.23-1.15,3-1,4.11,2.34,4.83A150.53,150.53,0,0,1,226,347.42c1.88,1.6,2.72,1,4-.58a123.67,123.67,0,0,1,8.13-9.59c2.31-2.38,2-3.71-.55-5.71A176.06,176.06,0,0,0,186.4,303c-2.72-1-3.33-1.66-2.11-4.44,5.87-13.33,12.14-26.45,19.21-39.19a4.75,4.75,0,0,1,4.7-2.82c17.7-.45,33.84,4.75,49.21,13a3.79,3.79,0,0,1,2.39,3.6c1.33,27.66,26.87,51.15,57.18,47.15,20.43-2.69,34.85-13.87,41.85-33.06C366,267.68,362.33,249.38,348,234.15Zm-37.27,67.27a31.91,31.91,0,1,1,31.92-31.87C342.65,287.27,328.19,301.67,310.73,301.42Z"/></g></g></svg>